HIERARCHY
ROOT Hips
{
	OFFSET 0.00 0.00 0.00
	CHANNELS 6 Xposition Yposition Zposition Xrotation Yrotation Zrotation
	JOINT Spine
	{
		OFFSET 0.00000 7.06766 0.00000
		CHANNELS 3 Xrotation Yrotation Zrotation
		JOINT Head
		{
			OFFSET 0.00000 15.03989 0.00000
			CHANNELS 3 Xrotation Yrotation Zrotation
			End Site
			{
				OFFSET 0.00000 4.52755 0.00000
			}
		}
		JOINT LeftShoulder
		{
			OFFSET 0.00000 10.53037 0.00000
			CHANNELS 3 Xrotation Yrotation Zrotation
			JOINT LeftArm
			{
				OFFSET 7.02886 0.00000 0.00000
				CHANNELS 3 Xrotation Yrotation Zrotation
				JOINT LeftForeArm
				{
					OFFSET 10.79770 0.00000 0.00000
					CHANNELS 3 Yrotation Zrotation Xrotation
					JOINT LeftHand
					{
						OFFSET 7.90744 0.00000 0.00000
						CHANNELS 3 Xrotation Yrotation Zrotation
						JOINT LeftHandThumb1
						{
							OFFSET 0.00000 0.00000 0.00000
							CHANNELS 3 Xrotation Zrotation Yrotation
							End Site
							{
								OFFSET 0.00000 0.00000 3.93700
							}
						}
						End Site
						{
							OFFSET 3.93700 0.00000 0.00000
						}
					}
				}
			}
		}
		JOINT RightShoulder
		{
			OFFSET 0.00000 10.53037 0.00000
			CHANNELS 3 Xrotation Yrotation Zrotation
			JOINT RightArm
			{
				OFFSET -7.02886 0.00000 0.00000
				CHANNELS 3 Xrotation Yrotation Zrotation
				JOINT RightForeArm
				{
					OFFSET -10.79770 0.00000 0.00000
					CHANNELS 3 Yrotation Zrotation Xrotation
					JOINT RightHand
					{
						OFFSET -7.90744 0.00000 0.00000
						CHANNELS 3 Xrotation Yrotation Zrotation
						JOINT RightHandThumb1
						{
							OFFSET 0.00000 0.00000 0.00000
							CHANNELS 3 Xrotation Zrotation Yrotation
							End Site
							{
								OFFSET 0.00000 0.00000 3.93700
							}
						}
						End Site
						{
							OFFSET -3.93700 0.00000 0.00000
						}
					}
				}
			}
		}
	}
	JOINT LeftUpLeg
	{
		OFFSET 4.01300 0.00000 0.00000
		CHANNELS 3 Xrotation Yrotation Zrotation
		JOINT LeftLeg
		{
			OFFSET 0.00000 -16.89976 0.00000
			CHANNELS 3 Xrotation Yrotation Zrotation
			JOINT LeftFoot
			{
				OFFSET 0.00000 -17.38918 0.00000
				CHANNELS 3 Xrotation Yrotation Zrotation
				JOINT LeftToeBase
				{
					OFFSET 0.00000 -1.27456 4.75673
					CHANNELS 3 Xrotation Yrotation Zrotation
					End Site
					{
						OFFSET 0.00000 0.00000 2.95275
					}
				}
			}
		}
	}
	JOINT RightUpLeg
	{
		OFFSET -4.01300 0.00000 0.00000
		CHANNELS 3 Xrotation Yrotation Zrotation
		JOINT RightLeg
		{
			OFFSET 0.00000 -16.89976 0.00000
			CHANNELS 3 Xrotation Yrotation Zrotation
			JOINT RightFoot
			{
				OFFSET 0.00000 -17.38918 0.00000
				CHANNELS 3 Xrotation Yrotation Zrotation
				JOINT RightToeBase
				{
					OFFSET 0.00000 -1.27456 4.75673
					CHANNELS 3 Xrotation Yrotation Zrotation
					End Site
					{
						OFFSET 0.00000 0.00000 2.95275
					}
				}
			}
		}
	}
}
MOTION
Frames: 7
Frame Time: 0.008333
 19.5883 35.4486 -22.3942 175.2328 -0.2773 179.1714 -14.5420 0.2855 -0.7404 7.7864 -1.5935 2.9786 -34.6157 0.5049 17.5671 3.0503 -3.9223 -5.7652 3.0209 0.0000 9.7528 1.3867 9.4558 -8.3819 33.1476 -0.0000 26.2537 1.7661 -13.3905 -9.4905 -35.0980 3.5415 8.1498 5.7762 -0.0000 38.2304 1.3949 -7.6926 10.3102 32.8623 0.0000 -24.3270 5.9415 13.2575 0.6970 -6.4772 -0.0000 -0.0000 -17.7954 28.1345 1.9789 24.4139 -0.0000 0.0000 4.5913 -8.1175 0.1871 -3.8812 0.0000 0.0000 -18.4737 -28.7566 -1.8530 25.0442 0.0000 -0.0000
 19.5870 35.4491 -22.3946 175.2357 -0.2658 179.1715 -14.5406 0.2922 -0.7457 7.8129 -1.5878 2.9764 -34.6073 0.5242 17.5711 3.0441 -3.9359 -5.7721 3.0308 0.0000 9.7319 1.3898 9.4544 -8.4016 33.1476 -0.0000 26.2537 1.7538 -13.3736 -9.4906 -35.1003 3.5483 8.1476 5.7380 -0.0000 38.2378 1.3824 -7.6477 10.2783 32.8623 0.0000 -24.3270 5.9474 13.2821 0.6919 -6.4808 -0.0000 -0.0000 -17.7853 28.1393 1.9523 24.3572 -0.0000 -0.0000 4.5884 -8.1186 0.1843 -3.8712 -0.0000 -0.0000 -18.4642 -28.7531 -1.8392 24.9834 -0.0000 0.0000
 19.5864 35.4490 -22.3940 175.2320 -0.2653 179.1701 -14.5436 0.2999 -0.7529 7.8256 -1.6056 2.9776 -34.6228 0.5190 17.5730 3.0237 -3.9341 -5.7813 3.0412 0.0000 9.7524 1.3917 9.4378 -8.4279 33.1476 -0.0000 26.2537 1.7460 -13.3734 -9.4970 -35.1144 3.5477 8.1530 5.7242 -0.0000 38.2421 1.3837 -7.6454 10.2907 32.8623 0.0000 -24.3270 5.9411 13.2785 0.6924 -6.4757 0.0000 0.0000 -17.7936 28.1378 1.9596 24.4024 0.0000 -0.0000 4.5791 -8.1185 0.1831 -3.8637 0.0000 -0.0000 -18.4746 -28.7562 -1.8556 25.0327 -0.0000 -0.0000
 19.5851 35.4489 -22.3935 175.2230 -0.2540 179.1677 -14.5603 0.3219 -0.7532 7.8610 -1.6178 2.9798 -34.6136 0.5174 17.5615 3.0400 -3.9434 -5.7762 3.0576 0.0000 9.7127 1.3936 9.4140 -8.4598 33.1476 -0.0000 26.2537 1.7272 -13.3725 -9.5149 -35.1062 3.5368 8.1663 5.7420 -0.0000 38.2621 1.3960 -7.6926 10.3182 32.8623 0.0000 -24.3270 5.9368 13.2873 0.6909 -6.4850 -0.0000 0.0000 -17.7865 28.1407 1.9666 24.3720 -0.0000 0.0000 4.5643 -8.1005 0.1816 -3.8550 -0.0000 0.0000 -18.4729 -28.7653 -1.8268 24.9726 0.0000 -0.0000
 19.5846 35.4490 -22.3934 175.2195 -0.2453 179.1645 -14.5647 0.3293 -0.7580 7.8796 -1.6267 2.9755 -34.6395 0.5150 17.5584 3.0543 -3.9384 -5.7673 3.0514 0.0000 9.6966 1.4001 9.4191 -8.4943 33.1476 -0.0000 26.2537 1.7345 -13.3666 -9.5206 -35.1074 3.5315 8.1736 5.7405 -0.0000 38.2354 1.3935 -7.6873 10.3066 32.8623 0.0000 -24.3270 5.9338 13.2981 0.6921 -6.4849 0.0000 -0.0000 -17.7964 28.1374 1.9674 24.4093 0.0000 -0.0000 4.5547 -8.1092 0.1813 -3.8478 -0.0000 -0.0000 -18.4442 -28.7692 -1.7695 24.9476 -0.0000 0.0000
 19.5841 35.4490 -22.3939 175.2231 -0.2381 179.1660 -14.5540 0.3285 -0.7717 7.8747 -1.6292 2.9879 -34.6829 0.5144 17.5810 3.0491 -3.9215 -5.7818 3.0276 0.0000 9.7016 1.4046 9.4324 -8.5090 33.1476 -0.0000 26.2537 1.7085 -13.3607 -9.5235 -35.0825 3.5362 8.1816 5.7578 -0.0000 38.2266 1.4012 -7.7156 10.3256 32.8623 0.0000 -24.3270 5.9427 13.2989 0.6889 -6.4894 0.0000 0.0000 -17.7963 28.1429 1.9715 24.3555 -0.0000 0.0000 4.5536 -8.1121 0.1797 -3.8384 0.0000 0.0000 -18.4740 -28.7409 -1.8249 25.0461 -0.0000 -0.0000
 19.5831 35.4488 -22.3942 175.2251 -0.2252 179.1641 -14.5523 0.3364 -0.7727 7.8956 -1.6207 2.9835 -34.6751 0.5341 17.5772 3.0149 -3.9211 -5.7713 3.0153 0.0000 9.6925 1.4115 9.4576 -8.5280 33.1476 -0.0000 26.2537 1.6917 -13.3537 -9.5405 -35.0960 3.5285 8.1974 5.7646 -0.0000 38.3041 1.3999 -7.6958 10.3423 32.8623 0.0000 -24.3270 5.9519 13.3152 0.6855 -6.5008 0.0000 -0.0000 -17.7929 28.1453 1.9697 24.3953 -0.0000 0.0000 4.5552 -8.0937 0.1787 -3.8406 0.0000 0.0000 -18.4706 -28.7486 -1.8269 24.9986 0.0000 -0.0000
